<?xml version="1.0" standalone="no"?>
<!DOCTYPE svg PUBLIC "-//W3C//DTD SVG 20010904//EN"
 "http://www.w3.org/TR/2001/REC-SVG-20010904/DTD/svg10.dtd">
<svg version="1.0" xmlns="http://www.w3.org/2000/svg"
 width="220.000000pt" height="220.000000pt" viewBox="0 0 220.000000 220.000000"
 preserveAspectRatio="xMidYMid meet">
<metadata>
Created by potrace 1.14, written by Peter Selinger 2001-2017
</metadata>
<g transform="translate(0.000000,220.000000) scale(0.100000,-0.100000)"
fill="#000000" stroke="none">
<path d="M220 2045 l0 -45 880 0 880 0 0 45 0 45 -880 0 -880 0 0 -45z"/>
<path d="M144 1652 l-100 -307 528 -3 c290 -1 766 -1 1056 0 l528 3 -100 307
-101 308 -855 0 -855 0 -101 -308z m386 251 c0 -5 -29 -120 -63 -258 l-63
-250 -42 -3 c-23 -2 -42 0 -42 4 0 5 18 80 41 169 22 88 42 167 44 175 2 8 8
35 15 60 7 25 14 56 17 69 2 14 6 28 9 33 6 10 84 11 84 1z m295 -60 c-7 -38
-18 -106 -24 -153 -7 -47 -15 -96 -17 -110 -3 -14 -9 -62 -16 -107 l-11 -83
-43 0 c-24 0 -44 4 -44 9 0 4 6 46 14 92 12 73 21 131 31 204 2 11 6 34 9 50
3 17 8 53 11 80 10 82 11 85 59 85 l43 0 -12 -67z m317 57 c2 -5 2 -123 0
-260 l-3 -251 -40 3 -40 3 0 165 c0 91 0 207 0 258 l1 92 39 0 c22 0 41 -4 43
-10z m319 -2 c0 -7 2 -22 4 -33 3 -19 9 -57 21 -145 3 -19 11 -71 19 -115 7
-44 16 -102 20 -130 3 -27 8 -58 11 -67 5 -15 -2 -18 -40 -18 -37 0 -46 4 -47
18 -1 25 -7 63 -13 92 -4 21 -32 202 -52 340 -3 19 -7 43 -10 53 -5 14 2 17
40 17 30 0 46 -4 47 -12z m308 -25 c6 -21 33 -130 61 -243 28 -113 53 -213 56
-222 5 -15 -1 -18 -38 -18 l-44 0 -17 68 c-10 37 -20 79 -22 92 -3 14 -24 100
-48 193 l-43 167 43 0 c40 0 43 -2 52 -37z"/>
<path d="M42 1278 c1 -13 6 -29 11 -35 5 -7 7 -13 3 -13 -10 0 23 -72 42 -93
87 -96 245 -47 276 86 9 40 30 33 43 -15 20 -72 100 -134 160 -123 10 2 26 4
35 4 33 2 98 71 111 118 12 48 37 56 44 14 5 -37 41 -88 76 -110 84 -51 181
-22 227 69 18 35 20 41 20 60 0 6 6 10 13 10 7 0 19 -20 26 -45 15 -51 79
-114 118 -116 13 -1 33 -2 46 -3 58 -4 147 82 147 142 0 38 27 24 45 -24 49
-128 169 -158 268 -66 15 14 27 34 27 43 0 10 5 21 10 24 5 3 10 15 10 26 0
10 7 19 15 19 8 0 15 -4 15 -10 0 -19 2 -25 20 -60 81 -159 293 -105 306 77
l3 43 -1059 0 -1059 0 1 -22z"/>
<path d="M885 1031 c-3 -2 -5 -170 -5 -373 l0 -368 -265 0 -265 0 0 347 1 348
-65 3 -66 3 0 -351 0 -350 -67 -1 c-93 -1 -105 -4 -132 -35 -30 -35 -25 -98
11 -126 22 -17 80 -18 1061 -18 771 0 1044 3 1060 12 52 27 63 88 23 135 -23
27 -36 30 -116 32 l-36 1 1 338 c0 185 -1 343 -3 350 -3 8 -26 12 -68 12 l-64
0 0 -350 0 -350 -460 0 -460 0 -2 372 -3 371 -38 2 c-21 0 -40 -1 -42 -4z"/>
<path d="M1222 837 c-149 -149 -161 -164 -146 -179 15 -14 29 -3 180 146 90
89 164 165 164 169 0 3 -8 11 -18 16 -16 8 -44 -15 -180 -152z"/>
<path d="M1370 720 c-241 -240 -260 -262 -247 -280 12 -18 31 -1 277 245 189
189 261 268 257 279 -4 9 -11 16 -17 16 -5 0 -127 -117 -270 -260z"/>
<path d="M655 945 c-14 -13 -26 -30 -26 -37 -3 -29 4 -54 17 -69 11 -12 14
-49 14 -152 0 -75 -4 -137 -9 -137 -5 0 -13 -13 -19 -28 -20 -59 34 -121 93
-106 54 13 76 78 43 126 -25 36 -27 272 -3 298 30 33 28 68 -4 100 -36 37 -73
39 -106 5z"/>
<path d="M1575 618 c-155 -154 -164 -166 -148 -180 17 -15 29 -5 183 148 154
153 164 164 148 180 -16 16 -27 7 -183 -148z"/>
</g>
</svg>
