<?xml version="1.0" standalone="no"?>
<!DOCTYPE svg PUBLIC "-//W3C//DTD SVG 20010904//EN"
 "http://www.w3.org/TR/2001/REC-SVG-20010904/DTD/svg10.dtd">
<svg version="1.0" xmlns="http://www.w3.org/2000/svg"
 width="500.000000pt" height="500.000000pt" viewBox="0 0 500.000000 500.000000"
 preserveAspectRatio="xMidYMid meet">
<metadata>
Created by potrace 1.11, written by Peter Selinger 2001-2013
</metadata>
<g transform="translate(0.000000,500.000000) scale(0.100000,-0.100000)"
fill="#000000" stroke="none">
<path d="M2418 4730 c-52 -15 -97 -51 -191 -150 -175 -184 -310 -411 -392
-658 -15 -46 -30 -81 -34 -79 -58 31 -204 94 -270 118 -259 92 -616 136 -750
92 -67 -21 -133 -80 -166 -147 -24 -49 -26 -63 -26 -187 0 -420 166 -858 441
-1162 230 -252 610 -448 1010 -519 105 -18 814 -18 920 0 474 84 883 325 1122
662 137 192 247 446 299 690 19 87 23 137 23 295 1 189 1 190 -26 236 -57 98
-136 141 -265 147 -234 11 -566 -63 -821 -183 -62 -29 -94 -40 -96 -32 -48
167 -165 408 -263 547 -38 52 -115 142 -173 201 -85 86 -114 109 -154 123 -52
17 -142 20 -188 6z m308 -505 c114 -167 198 -364 241 -565 25 -118 25 -372 0
-490 -60 -283 -197 -550 -384 -749 l-78 -84 -82 87 c-273 288 -438 735 -402
1091 34 338 184 662 416 899 l68 68 80 -84 c44 -46 108 -124 141 -173z m-1516
-453 c167 -34 384 -116 506 -191 l31 -19 6 -174 c6 -199 26 -305 90 -498 64
-196 180 -408 300 -553 l40 -49 -49 7 c-402 55 -771 256 -978 533 -124 164
-213 355 -261 555 -36 153 -58 390 -37 412 12 13 251 -3 352 -23z m2937 12 c9
-24 -14 -274 -33 -363 -53 -248 -185 -508 -348 -687 -122 -134 -331 -270 -531
-345 -103 -39 -270 -81 -362 -92 l-42 -5 48 62 c132 167 249 395 309 601 47
160 65 275 68 445 l3 165 78 42 c220 119 481 188 716 192 73 1 89 -2 94 -15z"/>
<path d="M279 2687 c-40 -27 -109 -140 -159 -262 -252 -611 -2 -1255 655
-1690 288 -191 632 -328 1015 -405 281 -56 368 -64 710 -64 342 0 429 8 710
64 923 185 1605 726 1740 1380 26 123 31 313 11 430 -37 222 -169 513 -253
556 -70 36 -166 -6 -187 -83 -12 -43 -3 -75 47 -160 52 -88 95 -196 118 -298
28 -117 25 -312 -5 -425 -63 -237 -208 -455 -423 -636 -336 -281 -766 -459
-1313 -541 -173 -26 -717 -26 -890 0 -358 54 -672 150 -932 287 -464 243 -752
580 -818 957 -38 217 6 448 124 652 41 71 51 98 51 133 0 102 -115 163 -201
105z"/>
<path d="M893 2079 c-18 -5 -44 -25 -60 -46 -25 -33 -28 -43 -26 -110 5 -144
69 -277 198 -408 229 -232 607 -386 1125 -457 127 -17 613 -17 740 0 313 43
549 108 759 208 336 160 526 368 560 614 12 87 8 112 -26 157 -46 63 -139 65
-197 4 -21 -22 -29 -44 -37 -97 -24 -174 -154 -311 -412 -434 -278 -133 -619
-200 -1017 -200 -413 0 -774 74 -1051 216 -239 122 -355 250 -378 418 -11 76
-33 109 -88 132 -36 16 -45 16 -90 3z"/>
</g>
</svg>
