<?xml version="1.0" standalone="no"?>
<!DOCTYPE svg PUBLIC "-//W3C//DTD SVG 20010904//EN"
 "http://www.w3.org/TR/2001/REC-SVG-20010904/DTD/svg10.dtd">
<svg version="1.0" xmlns="http://www.w3.org/2000/svg"
 width="896.000000pt" height="896.000000pt" viewBox="0 0 896.000000 896.000000"
 preserveAspectRatio="xMidYMid meet">
<metadata>
Created by potrace 1.11, written by Peter Selinger 2001-2013
</metadata>
<g transform="translate(0.000000,896.000000) scale(0.100000,-0.100000)"
fill="#000000" stroke="none">
<path d="M4385 8490 c-139 -28 -244 -105 -440 -325 -38 -43 -78 -87 -87 -97
-10 -10 -18 -22 -18 -27 0 -5 -4 -11 -8 -13 -26 -11 -265 -362 -308 -453 -8
-16 -22 -43 -32 -60 -10 -16 -26 -50 -37 -75 -11 -25 -22 -47 -25 -50 -7 -7
-44 -95 -90 -215 -52 -136 -53 -138 -56 -152 -8 -39 -47 -144 -52 -141 -4 2
-47 24 -97 49 -83 43 -234 110 -330 146 -22 9 -49 19 -60 23 -11 5 -45 16 -75
25 -30 9 -62 19 -70 22 -20 8 -16 7 -155 43 -66 17 -136 33 -155 36 -19 2 -46
7 -60 11 -32 8 -46 10 -100 18 -25 4 -59 9 -77 11 -155 24 -479 35 -578 21
-22 -3 -40 -6 -40 -7 0 -1 -8 -3 -17 -5 -50 -10 -157 -75 -214 -131 -60 -60
-128 -174 -138 -234 -3 -14 -5 -25 -6 -25 -16 0 -12 -393 4 -525 4 -25 9 -67
12 -95 4 -27 9 -61 11 -75 2 -14 5 -37 7 -52 1 -15 5 -31 9 -34 4 -4 7 -17 7
-29 0 -22 55 -257 67 -285 3 -8 7 -21 9 -28 2 -11 26 -87 42 -132 3 -8 6 -17
7 -20 2 -7 24 -62 32 -80 3 -8 7 -17 8 -20 1 -3 9 -22 18 -44 9 -21 17 -40 17
-43 0 -14 131 -270 172 -336 26 -43 48 -82 48 -86 0 -4 8 -16 18 -27 9 -10 23
-31 31 -46 8 -15 22 -37 33 -47 10 -11 18 -23 18 -27 0 -5 120 -163 145 -190
5 -6 30 -34 53 -63 70 -82 120 -131 227 -219 55 -45 107 -89 115 -96 75 -65
348 -235 498 -311 96 -48 136 -66 237 -110 146 -64 435 -153 582 -180 15 -2
39 -7 53 -10 200 -40 411 -60 625 -57 256 2 502 3 625 0 115 -2 284 6 370 17
19 3 55 7 80 10 25 2 54 6 65 9 11 2 40 7 65 11 25 4 53 9 63 11 9 2 27 6 40
9 129 28 146 32 150 35 1 1 10 3 21 5 10 2 71 20 135 41 64 20 122 37 129 37
6 0 12 4 12 9 0 4 6 8 14 8 29 0 337 137 344 153 2 4 10 7 17 7 17 0 228 120
233 132 2 4 8 8 14 8 12 0 102 61 106 72 2 4 8 8 14 8 9 0 69 42 96 67 7 7 16
13 20 13 4 0 23 15 44 33 20 17 74 63 120 101 45 39 115 106 153 149 39 44 75
85 80 91 6 6 33 40 60 76 27 36 52 67 55 70 8 7 170 249 170 255 0 2 14 28 32
57 45 75 158 305 158 321 0 7 4 17 8 23 5 5 14 23 20 39 6 17 17 44 23 60 7
17 13 32 14 35 1 3 4 12 7 20 22 59 38 108 41 125 2 11 7 27 10 35 6 17 30 90
33 105 14 57 36 151 40 173 19 103 33 190 38 227 22 179 25 215 26 406 0 80
-5 170 -11 200 -11 56 -66 181 -81 187 -4 2 -8 8 -8 13 0 13 -96 109 -109 109
-6 0 -11 4 -11 9 0 10 -118 69 -153 77 -59 14 -101 17 -197 18 -156 0 -358
-16 -490 -39 -14 -2 -42 -7 -62 -10 -75 -10 -237 -48 -372 -87 -204 -58 -372
-124 -576 -224 l-105 -51 -48 146 c-26 80 -52 150 -57 155 -6 6 -10 17 -10 26
0 8 -10 35 -22 60 -12 25 -22 48 -23 53 -2 4 -4 9 -5 12 -1 3 -3 8 -4 13 -7
28 -121 239 -190 350 -28 46 -55 91 -61 100 -24 40 -124 177 -150 206 -6 6
-18 21 -26 34 -31 45 -136 159 -241 263 -83 83 -122 114 -180 142 -40 20 -86
39 -103 42 -51 10 -188 13 -230 5z m210 -563 c50 -51 121 -131 158 -177 38
-47 75 -93 83 -103 8 -9 14 -20 14 -23 0 -2 8 -13 18 -24 54 -58 206 -330 272
-485 23 -55 48 -113 55 -130 22 -51 84 -251 99 -325 84 -391 90 -626 25 -955
-11 -55 -22 -111 -25 -125 -14 -69 -85 -299 -109 -355 -8 -16 -26 -59 -40 -95
-32 -77 -90 -193 -134 -270 -18 -30 -35 -63 -38 -72 -3 -10 -9 -18 -14 -18 -5
0 -9 -5 -9 -10 0 -9 -52 -93 -78 -125 -4 -5 -34 -46 -67 -90 -32 -44 -69 -91
-81 -105 -169 -189 -220 -240 -237 -240 -13 0 -155 141 -221 221 -70 84 -199
264 -252 350 -52 86 -183 338 -189 363 -1 6 -7 22 -12 36 -6 14 -19 45 -28 70
-9 25 -21 54 -25 65 -5 11 -18 54 -30 95 -11 41 -24 82 -27 90 -3 8 -7 20 -8
25 -1 6 -3 12 -4 15 -2 3 -4 14 -6 25 -1 11 -8 43 -15 70 -6 28 -14 64 -16 80
-2 17 -6 41 -9 55 -44 209 -46 451 -5 695 7 39 14 79 15 90 2 11 11 52 20 90
9 39 18 75 19 80 3 12 5 20 46 155 18 58 36 109 41 115 5 5 9 15 9 23 0 28
188 412 201 412 5 0 9 5 9 11 0 19 166 261 220 320 8 9 38 42 65 74 83 96 186
195 203 195 9 0 57 -42 107 -93z m-2750 -1121 c115 -9 144 -13 345 -50 14 -2
45 -9 70 -15 56 -14 77 -19 118 -27 17 -3 32 -11 32 -16 0 -5 4 -7 9 -4 9 6
243 -73 333 -112 94 -42 203 -97 210 -107 4 -5 8 -7 8 -3 0 4 28 -9 63 -29 34
-20 72 -41 84 -47 21 -10 29 -27 23 -51 -9 -39 -13 -297 -6 -375 7 -80 17
-164 22 -195 3 -16 7 -41 9 -55 3 -24 10 -68 19 -120 7 -38 15 -70 21 -91 4
-10 8 -31 10 -47 2 -15 4 -27 5 -27 1 0 3 -7 5 -15 5 -26 65 -230 75 -253 15
-39 23 -62 26 -77 2 -8 7 -23 13 -35 6 -11 22 -49 36 -85 15 -36 35 -82 46
-102 10 -21 15 -38 11 -38 -4 0 -2 -4 3 -8 6 -4 21 -29 35 -57 43 -88 122
-228 172 -303 26 -41 48 -77 48 -82 0 -5 4 -10 8 -12 5 -1 23 -25 42 -53 18
-27 36 -52 39 -55 16 -14 91 -110 91 -116 0 -4 8 -13 18 -21 15 -12 10 -14
-43 -9 -33 3 -73 8 -90 11 -16 3 -46 8 -65 11 -66 11 -85 15 -174 35 -48 11
-97 24 -107 30 -11 5 -19 8 -19 5 0 -4 -151 46 -269 89 -74 27 -269 123 -370
182 -89 52 -241 153 -267 177 -6 6 -22 18 -34 26 -13 8 -39 29 -59 45 -20 17
-42 35 -49 40 -67 52 -184 183 -278 310 -32 44 -62 82 -66 83 -5 2 -8 7 -8 12
0 4 -26 50 -59 101 -50 80 -154 273 -156 289 0 3 -3 10 -7 15 -21 33 -132 338
-142 391 -2 10 -11 46 -19 79 -16 59 -22 87 -32 143 -20 108 -20 110 -29 192
-12 110 -15 150 -16 252 -3 167 -3 168 22 177 23 8 162 7 293 -3z m5578 -11
c20 -37 4 -358 -28 -540 -21 -121 -24 -135 -40 -200 -9 -33 -17 -69 -20 -80
-7 -30 -62 -196 -76 -230 -7 -16 -13 -32 -14 -35 -7 -27 -26 -72 -71 -169 -30
-62 -54 -117 -54 -121 0 -5 -4 -10 -8 -12 -4 -1 -25 -34 -46 -71 -39 -70 -149
-240 -173 -267 -7 -8 -35 -42 -61 -75 -26 -32 -54 -66 -62 -75 -8 -9 -31 -34
-51 -55 -96 -107 -333 -286 -526 -397 -70 -40 -129 -74 -132 -74 -30 -7 -51
-18 -51 -25 0 -5 -8 -9 -18 -9 -10 0 -22 -4 -27 -9 -11 -10 -234 -100 -262
-106 -10 -2 -31 -8 -48 -15 -37 -14 -186 -56 -235 -66 -234 -46 -340 -60 -340
-45 0 5 4 11 8 13 22 9 221 284 277 383 16 28 32 52 35 55 15 14 160 302 160
319 0 6 5 11 10 11 6 0 10 6 10 14 0 13 32 94 50 127 5 9 12 33 15 53 4 20 11
36 15 36 4 0 13 25 20 55 7 30 17 55 22 55 5 0 6 4 3 10 -3 5 -1 18 4 28 6 11
12 30 15 43 2 13 18 79 35 147 17 68 33 142 36 165 3 23 8 49 10 57 2 8 6 35
9 60 3 25 8 56 11 70 17 88 23 350 11 482 -6 73 -5 78 16 89 13 7 25 15 28 18
14 17 337 179 372 186 10 2 32 10 50 18 42 18 163 60 163 56 0 -1 17 6 39 15
21 9 48 18 60 21 22 4 55 12 84 20 72 19 132 32 132 28 0 -2 6 -1 12 3 7 5 19
9 28 9 15 2 103 16 130 21 15 4 94 11 210 21 36 3 66 6 67 7 1 0 43 1 93 1 80
-1 93 -3 103 -20z"/>
<path d="M534 4839 c-52 -22 -85 -54 -137 -136 -180 -278 -307 -637 -344 -968
-9 -85 -9 -398 0 -475 15 -123 17 -135 23 -160 9 -33 11 -40 17 -75 45 -247
210 -605 400 -870 102 -142 297 -363 391 -444 10 -9 40 -37 67 -63 27 -26 49
-45 49 -42 0 2 8 -4 18 -13 41 -40 221 -179 302 -233 12 -8 33 -23 45 -33 13
-9 28 -17 34 -17 6 0 11 -4 11 -9 0 -5 14 -14 30 -21 17 -7 30 -16 30 -21 0
-5 5 -9 10 -9 6 0 35 -15 64 -34 105 -67 345 -192 516 -268 93 -41 277 -115
305 -122 13 -4 39 -14 93 -37 23 -10 42 -16 42 -14 0 2 33 -8 73 -22 39 -14
77 -26 82 -27 6 -2 30 -8 55 -15 25 -8 52 -15 60 -16 8 -2 15 -4 15 -5 0 -1 7
-3 15 -5 8 -2 76 -20 150 -39 74 -19 151 -38 170 -41 19 -3 64 -12 100 -20 36
-8 81 -17 100 -19 19 -3 49 -8 65 -11 70 -13 82 -15 120 -20 22 -3 51 -7 64
-10 13 -2 49 -7 80 -10 31 -3 65 -8 77 -10 11 -3 52 -7 90 -10 38 -3 87 -7
109 -10 160 -19 744 -26 935 -12 47 3 119 8 161 11 41 2 93 7 115 10 57 7 132
16 184 21 25 3 54 6 65 9 11 2 42 7 68 10 27 4 57 9 67 11 9 2 35 6 56 10 67
10 91 15 161 30 37 9 84 18 103 20 19 3 44 9 55 12 11 4 25 8 31 9 28 5 231
56 244 61 8 3 21 7 29 9 8 1 37 10 65 19 28 10 56 18 61 19 18 3 239 78 270
91 17 7 57 23 90 35 33 13 84 34 113 47 29 12 55 23 57 23 9 0 253 116 295
139 8 5 26 14 40 20 43 20 108 57 124 70 9 8 16 10 16 5 0 -5 4 -4 8 1 4 6 51
37 106 70 54 33 109 67 121 75 128 86 231 161 263 191 9 8 37 31 62 49 110 84
363 334 460 455 35 44 69 83 75 87 5 4 6 8 2 8 -5 0 -1 7 8 16 22 23 156 227
195 299 18 33 35 65 39 70 3 6 6 16 7 23 2 8 9 21 17 30 8 10 22 41 33 70 10
28 21 52 24 52 4 0 7 6 7 13 1 6 15 50 32 96 31 82 75 237 86 296 2 17 7 41
10 55 3 14 8 43 10 65 3 22 9 72 14 110 8 67 6 368 -3 430 -2 17 -7 50 -9 75
-7 59 -16 107 -27 150 -5 19 -11 46 -13 60 -5 28 -35 137 -44 160 -3 8 -7 20
-9 25 -8 30 -42 116 -47 122 -4 3 -7 13 -7 21 0 24 -125 267 -185 359 -83 126
-135 161 -239 161 -160 -1 -276 -160 -224 -309 10 -31 64 -127 78 -139 3 -3
12 -18 20 -35 8 -16 17 -32 20 -35 12 -11 111 -236 115 -260 2 -8 10 -35 20
-60 9 -25 19 -54 21 -65 2 -11 13 -60 24 -110 11 -49 23 -121 27 -160 9 -86
10 -287 1 -375 -7 -64 -9 -79 -29 -170 -17 -80 -63 -225 -74 -232 -5 -4 -7 -8
-3 -8 22 0 -182 -395 -222 -430 -3 -3 -22 -28 -42 -57 -21 -29 -47 -64 -60
-79 -80 -95 -167 -192 -210 -232 -28 -26 -69 -64 -92 -86 -22 -21 -77 -67
-121 -103 -44 -35 -88 -71 -98 -78 -36 -31 -236 -163 -317 -212 -120 -71 -352
-194 -375 -199 -5 -1 -44 -17 -85 -36 -70 -33 -108 -48 -120 -50 -3 0 -21 -9
-40 -19 -19 -11 -42 -19 -50 -19 -9 0 -20 -4 -25 -9 -8 -6 -177 -67 -215 -76
-3 -1 -12 -4 -20 -8 -15 -5 -155 -48 -175 -53 -5 -2 -72 -19 -149 -38 -76 -20
-152 -39 -170 -41 -17 -3 -38 -8 -46 -10 -8 -2 -28 -7 -45 -10 -16 -2 -41 -7
-55 -10 -14 -3 -40 -8 -59 -11 -18 -3 -42 -7 -51 -9 -10 -2 -40 -7 -67 -11
-26 -3 -57 -8 -68 -11 -11 -2 -42 -6 -70 -8 -27 -3 -61 -7 -75 -10 -22 -4 -64
-9 -191 -21 -149 -13 -286 -18 -529 -18 -294 1 -472 9 -640 29 -30 4 -71 8
-90 10 -19 2 -48 6 -65 9 -16 3 -50 7 -75 10 -25 3 -54 7 -65 10 -11 2 -40 7
-65 11 -25 4 -54 9 -65 11 -40 8 -81 15 -105 19 -14 2 -83 18 -155 35 -71 17
-139 33 -150 36 -11 2 -72 20 -135 39 -63 20 -126 38 -139 41 -14 3 -29 8 -35
12 -6 3 -17 7 -24 8 -8 2 -21 6 -30 10 -9 4 -22 8 -29 10 -14 3 -165 60 -208
78 -16 7 -61 26 -100 41 -90 37 -409 196 -413 207 -2 4 -12 8 -22 8 -10 0 -20
7 -24 15 -3 8 -9 14 -14 13 -13 -4 -272 167 -381 251 -233 180 -418 368 -571
581 -22 30 -43 60 -48 65 -4 6 -11 17 -15 25 -4 8 -18 33 -32 55 -29 45 -128
241 -138 271 -3 10 -16 44 -27 74 -12 30 -23 66 -26 79 -3 13 -9 32 -15 43 -5
10 -7 18 -5 18 3 0 1 12 -5 26 -5 15 -12 43 -15 63 -3 20 -7 43 -10 51 -25 72
-24 498 0 571 3 8 7 30 10 49 3 19 15 69 26 110 12 41 22 83 25 92 2 9 9 27
16 40 7 13 11 23 10 23 -2 0 13 45 26 75 3 8 7 17 7 20 4 18 102 200 133 247
53 82 72 135 69 196 -8 164 -181 271 -332 206z"/>
<path d="M1603 3726 c-18 -8 -33 -13 -33 -10 0 3 -7 -1 -16 -8 -74 -62 -113
-129 -110 -196 0 -23 -3 -42 -7 -42 -5 0 -5 -5 -2 -11 4 -5 9 -34 11 -62 2
-29 7 -58 9 -66 3 -8 8 -30 11 -50 13 -77 104 -290 141 -329 7 -7 13 -18 13
-23 0 -5 5 -15 10 -22 14 -16 38 -46 75 -92 84 -106 330 -325 364 -325 5 0 11
-4 13 -8 3 -8 95 -72 103 -72 3 0 33 -17 67 -38 63 -38 210 -112 303 -152 28
-11 59 -25 70 -30 19 -9 148 -58 170 -64 6 -2 17 -6 25 -9 18 -7 91 -30 105
-33 6 -2 42 -12 80 -24 115 -34 342 -88 440 -105 58 -10 92 -16 105 -20 8 -2
42 -7 75 -11 33 -3 63 -8 66 -10 4 -2 31 -6 62 -8 30 -3 67 -7 83 -10 27 -4
124 -13 234 -22 25 -2 116 -6 203 -9 87 -3 161 -6 165 -6 4 -1 12 -1 17 0 6 0
98 3 205 6 107 3 215 7 240 10 25 3 75 7 111 10 36 2 83 7 105 10 21 2 59 7
84 10 25 3 56 8 70 10 14 2 43 6 65 10 23 3 52 8 65 10 14 3 41 7 60 10 29 3
96 17 200 40 8 2 29 6 45 10 68 14 197 49 305 83 63 19 120 36 125 37 26 6
308 121 384 158 101 48 273 146 282 159 3 5 9 8 12 6 4 -1 19 6 34 17 119 87
199 149 201 156 2 5 7 9 12 9 14 0 156 146 224 230 27 34 104 155 116 182 5
12 14 30 19 38 12 20 52 118 56 139 2 9 11 43 19 76 25 92 30 226 12 289 -17
56 -65 113 -120 142 -43 22 -127 28 -173 13 -21 -7 -38 -10 -38 -8 -1 4 -22
-13 -59 -48 -35 -32 -66 -88 -69 -122 -1 -17 -5 -31 -9 -31 -4 0 -3 -11 2 -24
5 -13 6 -27 2 -30 -3 -4 -7 -17 -8 -29 -3 -64 -71 -225 -111 -265 -7 -7 -13
-17 -13 -21 0 -14 -158 -169 -217 -213 -32 -24 -60 -45 -63 -48 -29 -33 -423
-244 -473 -254 -7 -2 -25 -9 -42 -16 -37 -15 -165 -60 -185 -65 -8 -2 -27 -8
-42 -14 -27 -10 -282 -79 -322 -87 -11 -2 -55 -10 -96 -19 -41 -8 -91 -17
-110 -20 -19 -3 -42 -8 -50 -10 -8 -2 -42 -7 -75 -11 -33 -3 -68 -8 -77 -9 -9
-2 -48 -7 -85 -10 -37 -4 -77 -9 -88 -11 -130 -24 -812 -24 -1010 0 -28 4
-131 15 -185 21 -42 5 -114 16 -130 20 -8 3 -33 7 -55 10 -22 2 -51 7 -65 11
-14 3 -41 8 -60 10 -19 3 -53 10 -75 16 -47 13 -52 15 -85 21 -46 9 -154 38
-200 54 -25 8 -55 17 -67 19 -12 2 -42 13 -67 24 -26 11 -48 20 -51 20 -5 0
-9 1 -22 5 -8 2 -55 20 -83 32 -8 3 -17 7 -20 8 -56 21 -91 37 -180 81 -59 28
-137 70 -174 93 -38 23 -70 41 -72 41 -2 0 -12 6 -21 14 -10 8 -46 36 -81 62
-130 96 -256 239 -305 344 -37 81 -42 99 -52 180 -10 91 -16 124 -29 154 -15
36 -68 90 -112 112 -42 22 -142 28 -181 10z"/>
</g>
</svg>
