<?xml version="1.0" standalone="no"?>
<!DOCTYPE svg PUBLIC "-//W3C//DTD SVG 20010904//EN"
 "http://www.w3.org/TR/2001/REC-SVG-20010904/DTD/svg10.dtd">
<svg version="1.0" xmlns="http://www.w3.org/2000/svg"
 width="500.000000pt" height="500.000000pt" viewBox="0 0 500.000000 500.000000"
 preserveAspectRatio="xMidYMid meet">
<metadata>
Created by potrace 1.11, written by Peter Selinger 2001-2013
</metadata>
<g transform="translate(0.000000,500.000000) scale(0.100000,-0.100000)"
fill="#000000" stroke="none">
<path d="M1691 4897 c-26 -13 -40 -37 -21 -37 6 0 8 5 5 10 -7 11 23 9 41 -3
7 -4 14 0 17 8 4 9 1 12 -9 8 -7 -3 -14 -1 -14 5 0 6 6 13 13 15 6 3 8 6 2 6
-5 0 -21 -5 -34 -12z"/>
<path d="M1755 4880 c-3 -5 -1 -10 4 -10 6 0 11 5 11 10 0 6 -2 10 -4 10 -3 0
-8 -4 -11 -10z"/>
<path d="M1803 4863 c-7 -14 -10 -31 -7 -37 3 -6 0 -4 -8 5 -7 9 -19 14 -25
12 -7 -3 -13 0 -13 7 0 7 -8 5 -22 -5 -13 -8 -23 -19 -23 -23 0 -15 -34 -42
-40 -33 -3 6 1 13 8 18 19 11 41 53 28 53 -5 0 -12 -4 -16 -9 -3 -6 -18 -6
-35 -1 -33 10 -32 -6 1 -19 19 -6 19 -7 2 -26 -11 -12 -17 -33 -16 -52 1 -18
-3 -33 -7 -33 -5 0 -15 -13 -24 -30 -8 -18 -10 -30 -4 -30 7 0 6 -5 -2 -15 -9
-11 -8 -19 5 -37 16 -22 17 -22 12 -2 -3 13 2 25 14 32 26 17 43 15 27 -2 -7
-8 -16 -12 -20 -9 -5 2 -8 -6 -7 -19 0 -13 3 -17 6 -10 2 6 19 12 36 12 23 0
28 -3 17 -9 -8 -6 -17 -8 -21 -5 -4 2 -9 -3 -13 -11 -4 -12 2 -14 27 -12 18 1
35 7 39 12 5 6 8 6 8 -2 0 -23 -30 -44 -50 -33 -29 16 -37 12 -12 -6 12 -8 34
-14 49 -12 15 2 28 -3 30 -10 3 -7 -1 -10 -10 -6 -8 3 -18 1 -21 -4 -3 -5 4
-12 16 -15 14 -4 27 1 40 15 10 12 18 16 18 10 0 -6 -4 -14 -10 -17 -5 -3 -10
-12 -10 -20 0 -19 30 -12 46 10 8 10 14 15 14 10 0 -5 -7 -17 -17 -27 -9 -10
-14 -21 -11 -24 6 -6 49 15 59 30 8 10 49 -2 49 -14 0 -4 8 -6 19 -3 12 3 17
12 15 28 -1 13 4 26 12 29 17 7 18 -6 2 -22 -9 -9 -8 -12 6 -12 13 0 16 -6 12
-22 -3 -13 -3 -17 0 -10 3 6 12 12 19 12 7 0 16 6 19 13 5 10 7 10 12 0 7 -15
60 -17 69 -3 3 6 14 10 24 10 25 0 73 39 50 40 -9 0 -23 8 -30 18 -12 15 -12
16 1 6 8 -6 23 -10 33 -9 9 2 17 -1 17 -6 0 -5 4 -9 9 -9 5 0 8 13 7 29 -1 21
2 27 12 23 20 -7 32 18 19 40 -9 14 -9 23 0 37 10 15 9 22 -2 31 -12 10 -15 9
-15 -9 0 -11 -4 -21 -10 -21 -5 0 -7 7 -4 15 7 17 -11 20 -22 4 -5 -8 -10 -6
-16 5 -5 9 -13 14 -19 11 -5 -4 -9 2 -10 12 0 14 -2 14 -9 -4 -18 -45 -22 -20
-5 32 3 11 -1 7 -10 -9 -13 -22 -19 -26 -26 -15 -6 9 -3 18 6 25 18 14 20 28
3 17 -7 -4 -20 -8 -28 -8 -47 -4 -49 -5 -43 -22 6 -16 5 -16 -10 -5 -10 8 -25
11 -38 7 -22 -7 -22 -8 4 -19 19 -8 24 -15 18 -25 -6 -9 -5 -25 0 -40 9 -25 8
-25 -6 -7 -8 11 -13 28 -9 38 4 13 0 18 -15 18 -12 0 -21 4 -21 9 0 5 -8 8
-17 7 -27 -4 -64 34 -53 54 6 11 5 21 -2 28 -9 9 -9 12 0 12 7 0 12 7 12 16 0
10 -5 14 -15 10 -9 -3 -18 1 -21 9 -5 11 -11 12 -25 4 -21 -11 -26 0 -7 19 8
8 8 15 3 21 -6 6 -15 0 -22 -16z m-53 -37 c0 -3 -4 -8 -10 -11 -5 -3 -10 -1
-10 4 0 6 5 11 10 11 6 0 10 -2 10 -4z m313 -110 c4 -10 1 -13 -8 -9 -8 3 -12
9 -9 14 7 12 11 11 17 -5z m-419 -37 c-8 -14 -24 -10 -24 6 0 9 6 12 15 9 8
-4 12 -10 9 -15z m413 -11 c-3 -8 -6 -5 -6 6 -1 11 2 17 5 13 3 -3 4 -12 1
-19z m-87 -32 c0 -5 -8 -1 -19 10 -10 10 -16 23 -14 27 5 9 32 -22 33 -37z
m-43 -142 c-3 -3 -12 -4 -19 -1 -8 3 -5 6 6 6 11 1 17 -2 13 -5z"/>
<path d="M1600 4821 c0 -10 30 -24 37 -17 3 2 -5 9 -16 16 -12 6 -21 7 -21 1z"/>
<path d="M1580 4790 c0 -5 7 -7 16 -3 13 5 15 2 10 -15 -4 -12 -2 -23 5 -28 7
-4 9 -3 5 4 -3 6 -2 14 4 17 8 5 7 11 -1 21 -13 16 -39 19 -39 4z"/>
<path d="M2165 4731 c-3 -5 -1 -12 5 -16 5 -3 10 1 10 9 0 18 -6 21 -15 7z"/>
<path d="M2201 4727 c-8 -10 -7 -14 4 -14 8 0 15 6 15 14 0 7 -2 13 -4 13 -2
0 -9 -6 -15 -13z"/>
<path d="M1660 4521 c0 -10 30 -24 37 -17 3 2 -5 9 -16 16 -12 6 -21 7 -21 1z"/>
<path d="M1716 4481 c-3 -5 1 -11 9 -15 8 -3 15 -1 15 4 0 13 -18 22 -24 11z"/>
<path d="M1871 4466 c-8 -9 -11 -19 -7 -23 9 -9 29 13 24 27 -2 8 -8 7 -17 -4z"/>
<path d="M2015 4460 c-3 -5 1 -10 10 -10 9 0 13 5 10 10 -3 6 -8 10 -10 10 -2
0 -7 -4 -10 -10z"/>
<path d="M2100 4370 c-17 -11 -121 -45 -165 -54 -59 -12 -80 -16 -113 -22 -34
-6 -109 -12 -148 -13 -16 -1 -24 -11 -33 -43 -26 -96 -26 -97 41 -103 24 -2
44 -5 46 -6 3 -2 19 -6 32 -8 20 -2 71 -60 74 -83 1 -13 5 -28 8 -33 7 -13 2
-693 -5 -722 -17 -67 -61 -109 -126 -119 -65 -10 -68 -13 -75 -51 -3 -21 -6
-54 -6 -73 l0 -35 380 0 380 0 -4 55 c-2 30 -8 64 -13 75 -8 20 -14 23 -63 31
-50 9 -95 59 -108 119 -2 11 -6 232 -8 490 -1 259 -6 489 -9 512 -4 25 -16 51
-32 67 -29 29 -32 30 -53 16z"/>
<path d="M125 4359 c-8 -13 3 -117 15 -139 5 -10 23 -21 40 -25 53 -12 89 -62
181 -252 49 -100 89 -185 89 -188 0 -2 15 -36 34 -75 19 -39 35 -73 36 -75 0
-3 15 -37 33 -77 18 -40 49 -109 68 -153 18 -44 37 -81 42 -83 4 -2 7 -9 7
-15 0 -6 28 -76 61 -155 l62 -143 51 2 c28 1 70 9 94 17 38 12 45 20 72 79 17
35 30 70 30 77 0 8 7 19 15 26 8 7 15 18 15 24 0 7 29 78 65 158 36 81 65 151
65 157 0 6 4 11 10 11 5 0 9 3 8 8 -2 8 3 21 88 216 101 232 169 368 201 398
15 14 46 34 67 45 40 18 48 33 61 110 7 45 -1 59 -33 57 -15 -1 -27 -3 -27 -5
0 -7 -413 -4 -427 3 -11 5 -18 5 -18 -1 0 -7 -9 -7 -25 -1 -37 14 -39 5 -21
-88 11 -53 17 -60 61 -71 66 -17 96 -50 99 -108 1 -26 -1 -59 -6 -73 -34 -108
-52 -158 -91 -247 -25 -56 -43 -104 -39 -107 3 -3 0 -6 -6 -6 -7 0 -11 -3 -10
-7 1 -5 -4 -19 -9 -33 -6 -14 -20 -47 -30 -75 -11 -27 -24 -59 -28 -70 -10
-24 -10 -24 -19 -57 -10 -35 -36 -46 -36 -15 0 13 -4 27 -8 33 -4 5 -14 27
-21 49 -8 22 -21 58 -31 80 -9 22 -41 99 -70 170 -29 72 -64 154 -77 182 -13
29 -23 54 -22 55 2 2 -9 24 -24 50 -59 106 -45 156 50 177 32 7 63 15 69 16 6
2 15 21 19 42 4 21 9 49 11 62 6 31 -13 53 -35 41 -10 -5 -23 -5 -31 0 -8 5
-19 6 -25 2 -15 -10 -547 -10 -567 0 -10 5 -19 4 -23 -2 -3 -6 -15 -6 -30 0
-15 6 -27 6 -30 -1z"/>
<path d="M2213 4353 c-3 -6 -2 -36 1 -65 3 -29 5 -58 6 -65 0 -6 17 -17 38
-23 61 -20 97 -65 166 -204 56 -114 106 -220 111 -236 1 -3 18 -41 39 -85 61
-130 221 -492 264 -595 l39 -95 47 -3 c26 -2 69 4 95 13 53 17 50 13 131 200
26 61 73 169 105 240 53 121 76 173 80 185 1 3 12 28 24 55 31 70 35 79 79
175 21 47 39 90 40 95 6 27 87 176 110 200 14 15 44 36 68 46 33 15 45 27 54
54 6 19 9 39 6 44 -4 5 -2 12 3 16 5 3 9 17 8 32 -2 23 -7 27 -30 26 -15 -1
-28 -2 -29 -3 -8 -7 -385 -5 -393 1 -6 4 -16 4 -24 0 -7 -4 -30 -5 -50 -1
l-38 7 1 -36 c3 -55 25 -121 41 -121 7 0 33 -8 57 -19 72 -31 86 -82 54 -206
-8 -33 -32 -97 -53 -145 -33 -73 -173 -418 -182 -449 l-7 -25 -11 30 c-63 163
-108 276 -124 311 -10 23 -19 45 -19 48 0 4 -7 21 -14 38 -81 176 -136 313
-136 340 0 44 19 56 124 75 43 8 51 22 59 108 4 48 -3 55 -45 43 -17 -5 -28
-4 -28 2 0 6 -6 7 -12 2 -14 -9 -577 -13 -592 -5 -19 11 -58 8 -63 -5z"/>
<path d="M3147 2849 c-31 -9 -58 -14 -61 -11 -3 2 -13 -1 -22 -9 -10 -8 -19
-13 -21 -11 -2 2 -32 -11 -68 -28 -91 -43 -209 -161 -259 -258 -48 -93 -69
-196 -70 -345 l-1 -108 -70 1 c-124 2 -121 3 -139 -35 -9 -19 -18 -55 -20 -80
l-3 -45 39 -1 c100 -4 177 -19 186 -37 6 -13 7 -484 2 -762 -1 -53 -24 -127
-48 -156 -21 -25 -56 -39 -121 -48 -29 -4 -40 -21 -42 -63 -1 -18 -2 -43 -3
-55 -4 -38 8 -44 85 -38 68 5 682 3 744 -2 29 -3 30 -2 31 45 0 26 -3 50 -7
53 -5 2 -6 10 -4 17 8 20 -11 39 -41 42 -138 16 -190 51 -222 150 -18 55 -20
93 -21 437 l-2 377 41 11 c46 12 120 22 194 24 42 1 50 5 58 26 17 47 26 126
15 137 -3 2 -73 5 -157 5 l-152 1 5 181 c3 100 7 192 9 206 30 159 74 210 185
211 50 1 100 -20 128 -53 41 -48 58 -96 70 -198 2 -14 3 -28 4 -31 2 -13 169
4 200 21 11 6 15 42 18 161 2 85 4 165 6 179 3 38 -67 71 -203 96 -73 13 -206
10 -263 -7z"/>
<path d="M2088 2622 c-10 -2 -18 -7 -18 -12 0 -4 8 -7 18 -6 9 2 22 -4 29 -13
9 -13 14 -13 24 -4 10 10 8 14 -7 19 -10 4 -21 10 -24 14 -3 3 -13 4 -22 2z"/>
<path d="M2007 2581 c-26 -14 -43 -27 -37 -29 5 -2 10 -8 10 -13 0 -14 -28
-11 -33 4 -4 9 -6 9 -6 0 -1 -7 -7 -10 -15 -7 -8 3 -20 -3 -27 -13 -8 -10 -18
-18 -24 -19 -23 -1 -64 -24 -78 -44 -8 -12 -16 -17 -18 -11 -3 6 -12 4 -23 -5
-11 -8 -14 -14 -7 -14 7 0 9 -4 6 -10 -3 -5 -1 -10 4 -10 6 0 11 -5 11 -10 0
-6 -8 -10 -17 -8 -10 2 -18 -3 -18 -10 0 -14 -44 -52 -60 -52 -5 0 -3 4 5 10
8 5 12 11 9 14 -2 3 -11 1 -18 -3 -16 -10 -8 -27 21 -42 18 -10 20 -9 15 5 -3
8 -2 18 3 21 16 10 19 -11 5 -39 -17 -33 -9 -58 10 -32 11 14 14 14 18 2 3 -8
1 -17 -6 -20 -9 -5 -9 -7 -1 -11 7 -3 10 -15 7 -26 -5 -17 -2 -19 21 -15 14 2
28 0 31 -5 4 -5 1 -9 -6 -9 -7 0 -10 -3 -6 -6 8 -9 48 6 42 16 -3 5 -1 11 5
15 5 3 10 0 10 -7 1 -8 9 -4 19 10 19 22 41 29 41 13 0 -5 -9 -11 -19 -14 -21
-5 -49 -47 -32 -47 6 0 15 9 21 20 6 11 15 18 20 15 6 -3 15 5 21 19 7 14 16
23 21 20 5 -4 18 2 28 12 39 39 48 44 53 31 3 -8 11 -5 25 9 12 12 20 24 19
26 -1 2 2 0 8 -4 15 -13 23 -9 18 10 -3 12 2 18 14 19 52 4 73 18 73 49 0 13
5 24 11 24 5 0 8 -4 4 -9 -10 -17 9 -20 30 -5 19 14 19 14 -1 28 -10 8 -15 18
-11 22 4 5 12 2 17 -5 13 -22 39 -6 33 20 -4 15 0 26 13 36 18 13 17 13 -5 10
-12 -2 -27 -10 -32 -18 -7 -12 -9 -12 -9 1 0 9 9 22 19 29 18 13 18 41 0 41
-4 0 -6 -6 -3 -14 4 -10 -2 -14 -20 -12 -18 1 -26 7 -26 19 0 9 -4 17 -9 17
-5 0 -17 3 -27 7 -14 5 -16 2 -11 -18 5 -22 5 -22 -7 -6 -7 9 -21 17 -30 17
-9 0 -16 5 -16 12 0 6 -3 8 -7 5 -3 -4 -11 -1 -17 7 -9 11 -19 9 -59 -13z m48
-21 c3 -5 1 -10 -4 -10 -6 0 -11 5 -11 10 0 6 2 10 4 10 3 0 8 -4 11 -10z m48
-17 c-7 -2 -19 -2 -25 0 -7 3 -2 5 12 5 14 0 19 -2 13 -5z m-153 -43 c0 -5 -5
-10 -11 -10 -5 0 -7 5 -4 10 3 6 8 10 11 10 2 0 4 -4 4 -10z m-88 -52 c-7 -7
-12 -8 -12 -2 0 6 3 14 7 17 3 4 9 5 12 2 2 -3 -1 -11 -7 -17z m-62 -39 c0 -5
-4 -9 -8 -9 -5 0 -9 7 -9 15 0 8 4 12 9 9 4 -3 8 -9 8 -15z m-30 -49 c0 -5 -4
-10 -10 -10 -5 0 -10 5 -10 10 0 6 5 10 10 10 6 0 10 -4 10 -10z m75 -130 c3
-5 1 -10 -4 -10 -6 0 -11 5 -11 10 0 6 2 10 4 10 3 0 8 -4 11 -10z"/>
<path d="M1713 2411 c1 -5 -7 -17 -18 -25 -20 -15 -20 -15 0 -16 21 0 49 33
38 44 -10 9 -23 7 -20 -3z"/>
<path d="M1700 2210 c0 -5 5 -10 11 -10 5 0 7 5 4 10 -3 6 -8 10 -11 10 -2 0
-4 -4 -4 -10z"/>
<path d="M1700 2170 c0 -5 7 -7 15 -4 8 4 15 8 15 10 0 2 -7 4 -15 4 -8 0 -15
-4 -15 -10z"/>
<path d="M1746 2168 c3 -5 10 -6 15 -3 13 9 11 12 -6 12 -8 0 -12 -4 -9 -9z"/>
<path d="M2093 2125 c-11 -8 -23 -11 -27 -8 -3 3 -6 0 -6 -7 0 -7 -3 -10 -6
-7 -4 3 -14 2 -24 -3 -9 -5 -28 -11 -41 -14 -13 -3 -35 -8 -49 -11 -14 -3 -38
-8 -54 -11 -16 -2 -32 -6 -35 -8 -9 -6 -132 -19 -169 -19 -20 1 -35 -5 -38
-13 -2 -8 -7 -22 -10 -31 -3 -10 -5 -20 -5 -23 -1 -3 -5 -11 -11 -17 -7 -9 -7
-13 2 -13 9 0 9 -4 2 -13 -17 -20 -1 -32 52 -35 91 -6 148 -49 161 -122 8 -43
9 -591 2 -678 -10 -112 -60 -170 -153 -176 -44 -3 -52 -16 -56 -84 -2 -29 -7
-52 -11 -52 -4 0 -2 -6 5 -13 8 -9 26 -12 53 -9 50 6 557 7 645 1 l65 -4 -1
30 c-2 36 -13 117 -17 121 -2 2 -12 5 -23 7 -49 10 -81 21 -98 36 -20 17 -45
69 -53 111 -3 14 -6 241 -7 505 -1 264 -6 492 -10 506 -4 15 -20 36 -35 47
-25 18 -31 19 -48 7z"/>
<path d="M3316 2113 c-6 -6 16 -139 25 -149 5 -6 22 -14 37 -17 37 -9 82 -51
126 -120 32 -50 135 -257 198 -397 11 -25 33 -72 48 -105 15 -33 38 -82 50
-110 12 -27 34 -75 47 -105 14 -30 33 -73 43 -95 9 -22 28 -62 40 -90 12 -27
31 -70 42 -95 11 -25 28 -62 39 -84 l19 -38 -47 -96 c-46 -93 -98 -172 -132
-200 -9 -7 -41 -25 -71 -39 -46 -23 -68 -26 -145 -26 -89 0 -146 5 -196 18
-20 5 -28 2 -34 -12 -21 -52 -22 -196 -1 -229 33 -49 151 -92 246 -88 30 1 55
3 55 4 0 1 13 3 29 5 84 11 180 99 266 246 57 97 150 288 165 339 1 3 9 23 19
45 9 22 44 105 78 185 53 128 71 170 108 255 22 50 161 384 165 395 5 16 47
108 55 122 5 10 10 26 10 37 0 10 7 24 15 31 8 7 15 20 15 29 0 9 5 22 12 29
7 7 8 12 3 12 -6 0 -6 3 0 8 6 4 21 27 34 52 33 63 48 78 108 112 57 32 59 36
68 118 l6 55 -288 0 c-161 0 -291 -4 -295 -9 -3 -5 -5 -19 -3 -30 2 -12 6 -38
9 -60 8 -51 8 -51 61 -66 25 -7 59 -25 76 -40 26 -22 31 -35 34 -76 1 -29 -6
-75 -17 -109 -10 -33 -21 -67 -23 -75 -2 -8 -19 -52 -39 -97 -19 -44 -32 -84
-29 -87 4 -3 1 -6 -5 -6 -7 0 -12 -5 -12 -12 0 -22 -122 -318 -131 -318 -5 0
-9 6 -9 14 0 21 -114 295 -189 456 -78 165 -91 200 -91 244 0 58 42 93 132
110 38 7 45 17 54 75 3 20 7 46 9 59 3 17 -1 22 -18 23 -89 2 -769 3 -771 2z"/>
<path d="M4625 1167 c-80 -38 -127 -114 -127 -209 0 -82 32 -144 96 -183 45
-27 57 -30 135 -30 73 0 93 4 128 24 76 44 120 134 110 227 -3 29 -13 65 -23
81 -27 45 -82 89 -125 102 -54 16 -145 10 -194 -12z"/>
</g>
</svg>
