<?xml version="1.0" standalone="no"?>
<!DOCTYPE svg PUBLIC "-//W3C//DTD SVG 20010904//EN"
 "http://www.w3.org/TR/2001/REC-SVG-20010904/DTD/svg10.dtd">
<svg version="1.0" xmlns="http://www.w3.org/2000/svg"
 width="460.000000pt" height="460.000000pt" viewBox="0 0 460.000000 460.000000"
 preserveAspectRatio="xMidYMid meet">
<metadata>
Created by potrace 1.14, written by Peter Selinger 2001-2017
</metadata>
<g transform="translate(0.000000,460.000000) scale(0.100000,-0.100000)"
fill="#000000" stroke="none">
<path d="M610 4020 c0 -57 4 -80 13 -81 39 -3 3325 -4 3340 -1 14 4 17 16 17
83 l0 79 -1685 0 -1685 0 0 -80z"/>
<path d="M661 3855 c-5 -5 -31 -77 -59 -160 -28 -82 -82 -240 -121 -350 -38
-110 -101 -291 -140 -402 l-70 -203 2024 0 2024 0 -70 203 c-39 111 -90 258
-114 327 -24 69 -76 217 -115 330 -40 113 -76 219 -81 235 l-9 30 -1631 0
c-1075 0 -1633 -3 -1638 -10z m545 -93 c-3 -9 -13 -44 -21 -77 -36 -139 -149
-568 -177 -670 -16 -60 -32 -121 -34 -134 -10 -52 -17 -56 -93 -55 -40 1 -74
4 -77 7 -3 2 4 40 16 83 11 44 23 87 25 97 2 10 7 27 10 37 3 10 7 27 10 37 2
10 15 61 29 113 14 52 53 199 86 325 34 127 62 235 65 241 2 7 35 12 85 13 74
1 81 0 76 -17z m579 -11 c-3 -14 -7 -37 -10 -51 -3 -14 -8 -43 -11 -65 -3 -22
-12 -80 -20 -130 -18 -110 -23 -141 -30 -180 -2 -16 -9 -55 -14 -85 -5 -30
-12 -73 -15 -95 -3 -22 -12 -76 -20 -120 -8 -44 -17 -102 -21 -130 -3 -27 -10
-54 -14 -59 -4 -4 -37 -8 -72 -8 -92 0 -89 -1 -84 30 3 15 16 95 30 177 14 83
27 168 31 190 3 22 10 65 15 95 11 65 16 92 30 185 12 74 17 106 25 144 2 12
7 43 10 68 2 24 7 48 10 53 3 5 41 8 85 8 l80 0 -5 -27z m591 -448 c0 -451 0
-473 -18 -474 -10 0 -38 -1 -63 -1 -25 0 -53 1 -63 1 -18 1 -18 23 -17 474 1
259 3 473 4 475 0 2 36 2 79 0 l77 -3 1 -472z m605 460 c0 -10 2 -25 4 -33 2
-8 6 -31 9 -50 4 -19 8 -46 11 -60 2 -14 7 -43 10 -65 3 -22 12 -80 21 -130 8
-49 17 -103 20 -120 2 -16 7 -43 10 -58 3 -16 7 -38 9 -50 6 -49 16 -115 25
-162 9 -49 18 -102 25 -158 2 -15 7 -32 10 -37 7 -11 7 -11 -88 -13 -38 -1
-71 1 -74 6 -6 9 -5 3 -54 307 -84 517 -96 595 -99 605 -8 31 1 35 80 35 69 0
80 -2 81 -17z m580 0 c2 -15 6 -32 9 -35 1 -2 3 -10 5 -18 3 -18 65 -259 71
-278 2 -7 4 -14 4 -17 1 -3 6 -19 11 -37 6 -18 12 -41 14 -50 2 -9 15 -61 30
-115 15 -54 28 -106 31 -115 12 -50 14 -59 43 -168 30 -109 31 -105 -42 -104
-34 1 -69 2 -78 3 -11 1 -21 21 -33 64 -43 165 -159 605 -187 712 -17 66 -35
130 -39 142 -5 11 -6 24 -3 27 4 3 42 5 85 4 56 -1 78 -5 79 -15z"/>
<path d="M270 2623 c0 -23 4 -43 9 -43 5 0 11 -18 15 -41 15 -92 86 -188 175
-234 17 -8 33 -15 36 -15 3 0 6 0 8 -1 171 -52 364 70 393 250 6 36 10 41 34
41 24 0 28 -5 34 -40 29 -182 213 -299 395 -250 100 27 200 136 215 235 4 21
9 41 12 46 8 14 54 11 55 -3 4 -70 49 -157 108 -210 157 -141 393 -89 486 107
14 30 25 68 25 84 0 28 3 31 30 31 17 0 30 -5 31 -12 6 -100 95 -227 187 -265
184 -77 383 27 427 222 10 43 15 50 37 53 24 3 27 -1 37 -50 23 -103 109 -201
206 -232 67 -22 100 -24 161 -11 127 29 218 126 248 268 5 21 12 27 31 27 14
0 25 -3 26 -7 5 -55 48 -155 82 -192 195 -210 534 -77 540 212 l2 72 -2022 1
-2023 1 0 -44z"/>
<path d="M1876 2181 c-2 -3 -3 -294 -2 -646 l1 -640 85 0 85 0 0 645 0 645
-83 1 c-45 1 -84 -1 -86 -5z"/>
<path d="M621 2102 c-8 -3 -11 -199 -11 -637 l0 -634 -159 -3 c-143 -3 -163
-5 -187 -24 -53 -39 -69 -71 -69 -134 0 -63 16 -95 69 -134 l27 -21 2003 0
2003 0 37 29 c90 68 86 190 -7 260 -23 17 -46 21 -130 24 -56 1 -109 4 -117 5
-13 2 -15 81 -15 637 l0 635 -128 0 c-107 0 -127 -2 -128 -15 -1 -8 -2 -292
-4 -630 -1 -338 -3 -618 -4 -623 0 -4 -661 -6 -1468 -5 l-1468 3 0 633 c0 347
-2 633 -5 633 -13 3 -230 4 -239 1z"/>
<path d="M1495 2063 c-99 -27 -139 -161 -70 -233 l28 -30 0 -235 c0 -222 -1
-237 -20 -258 -50 -54 -57 -122 -20 -178 72 -108 241 -82 275 42 12 44 -6 105
-40 134 -23 20 -23 22 -23 255 0 233 0 236 24 260 24 26 38 55 45 94 8 46 -49
133 -95 145 -27 7 -84 9 -104 4z"/>
</g>
</svg>
